<?xml version="1.0" encoding="iso-8859-1"?>
<!-- Generator: Adobe Illustrator 19.0.0, SVG Export Plug-In . SVG Version: 6.00 Build 0)  -->
<svg version="1.1" id="Capa_1" xmlns="http://www.w3.org/2000/svg" xmlns:xlink="http://www.w3.org/1999/xlink" x="0px" y="0px"
	 viewBox="0 0 512 512" style="enable-background:new 0 0 512 512;" xml:space="preserve">
<g>
	<g>
		<path style="fill:#67B9CC;" d="M203.034,133.828c-2.341,0.001-4.587-0.929-6.243-2.585s-2.585-3.901-2.585-6.243V44.138H97.103
			c-4.875,0-8.828-3.952-8.828-8.828s3.952-8.828,8.828-8.828h97.103c9.746,0.011,17.644,7.909,17.655,17.655V125
			c0.001,2.341-0.929,4.587-2.585,6.243C207.622,132.898,205.376,133.828,203.034,133.828z"/>
		<path style="fill:#67B9CC;" d="M256,123.586c-2.341,0.001-4.587-0.929-6.243-2.585c-1.656-1.656-2.585-3.901-2.585-6.243V88.276
			c0.011-9.746,7.909-17.644,17.655-17.655h35.31V52.966c0-4.875,3.952-8.828,8.828-8.828s8.828,3.952,8.828,8.828v17.655
			c-0.011,9.746-7.909,17.644-17.655,17.655h-35.31v26.483c0.001,2.341-0.929,4.587-2.585,6.243
			C260.587,122.657,258.341,123.587,256,123.586z"/>
		<path style="fill:#67B9CC;" d="M335.448,148.125c-2.341,0.001-4.587-0.929-6.243-2.585c-1.656-1.656-2.585-3.901-2.585-6.243
			v-15.711c0.011-9.746,7.909-17.644,17.655-17.655h123.586V79.448c0-4.875,3.952-8.828,8.828-8.828s8.828,3.952,8.828,8.828v26.483
			c-0.011,9.746-7.909,17.644-17.655,17.655H344.276v15.711c0.001,2.341-0.929,4.587-2.585,6.243
			C340.035,147.196,337.79,148.126,335.448,148.125z"/>
		<path style="fill:#67B9CC;" d="M119.259,229.517H35.31c-9.746-0.011-17.644-7.909-17.655-17.655v-52.966
			c0-4.875,3.952-8.828,8.828-8.828s8.828,3.952,8.828,8.828v52.966h83.948c4.875,0,8.828,3.952,8.828,8.828
			S124.134,229.517,119.259,229.517z"/>
		<path style="fill:#67B9CC;" d="M70.621,414.897H52.966c-4.875,0-8.828-3.952-8.828-8.828s3.952-8.828,8.828-8.828h17.655V273.655
			c0.011-9.746,7.909-17.644,17.655-17.655h26.75c4.875,0,8.828,3.952,8.828,8.828s-3.952,8.828-8.828,8.828h-26.75v123.586
			C88.265,406.987,80.367,414.885,70.621,414.897z"/>
		<path style="fill:#67B9CC;" d="M194.207,494.345h-61.793c-4.875,0-8.828-3.952-8.828-8.828s3.952-8.828,8.828-8.828h61.793V387
			c0-4.875,3.952-8.828,8.828-8.828s8.828,3.952,8.828,8.828v89.69C211.851,486.436,203.953,494.334,194.207,494.345z"/>
		<path style="fill:#67B9CC;" d="M335.448,467.862c-2.341,0.001-4.587-0.929-6.243-2.585c-1.656-1.656-2.585-3.901-2.585-6.243
			v-17.655h-61.793c-9.746-0.011-17.644-7.909-17.655-17.655v-26.483c0-4.875,3.952-8.828,8.828-8.828s8.828,3.952,8.828,8.828
			v26.483h61.793c9.746,0.011,17.644,7.909,17.655,17.655v17.655c0.001,2.341-0.929,4.587-2.585,6.243
			C340.035,466.933,337.79,467.863,335.448,467.862z"/>
		<path style="fill:#67B9CC;" d="M467.862,432.552c-2.341,0.001-4.587-0.929-6.243-2.585c-1.656-1.656-2.585-3.901-2.585-6.243
			v-97.103h-76.009c-4.875,0-8.828-3.952-8.828-8.828s3.952-8.828,8.828-8.828h76.009c9.746,0.011,17.644,7.909,17.655,17.655
			v97.103c0.001,2.341-0.929,4.587-2.585,6.243C472.449,431.622,470.203,432.552,467.862,432.552z"/>
		<path style="fill:#67B9CC;" d="M476.69,273.655h-79.715c-4.875,0-8.828-3.952-8.828-8.828s3.952-8.828,8.828-8.828h79.715v-35.31
			c0-4.875,3.952-8.828,8.828-8.828s8.828,3.952,8.828,8.828V256C494.334,265.746,486.436,273.644,476.69,273.655z"/>
	</g>
	<g>
		<circle style="fill:#41767F;" cx="70.621" cy="35.31" r="26.483"/>
		<circle style="fill:#41767F;" cx="26.483" cy="132.414" r="26.483"/>
		<circle style="fill:#41767F;" cx="26.483" cy="406.069" r="26.483"/>
		<circle style="fill:#41767F;" cx="105.931" cy="485.517" r="26.483"/>
		<circle style="fill:#41767F;" cx="335.448" cy="485.517" r="26.483"/>
		<circle style="fill:#41767F;" cx="467.862" cy="450.207" r="26.483"/>
		<circle style="fill:#41767F;" cx="308.966" cy="26.483" r="26.483"/>
		<circle style="fill:#41767F;" cx="476.69" cy="52.966" r="26.483"/>
		<circle style="fill:#41767F;" cx="485.517" cy="194.207" r="26.483"/>
	</g>
	<circle style="fill:#F3D55B;" cx="256.021" cy="256" r="141.242"/>
	<g>
		<path style="fill:#F9EAB0;" d="M293.835,244.477c4.054-5.098,6.274-11.412,6.303-17.926v-2.897
			c-0.101-15.044-11.516-27.599-26.483-29.127v-9.149c0-4.875-3.952-8.828-8.828-8.828S256,180.504,256,185.379v8.828h-17.655
			v-8.828c0-4.875-3.952-8.828-8.828-8.828s-8.828,3.952-8.828,8.828v8.828h-8.828c-4.875,0-8.828,3.952-8.828,8.828
			s3.952,8.828,8.828,8.828h58.586c6.577-0.06,11.961,5.216,12.034,11.793v2.897c-0.073,6.577-5.457,11.853-12.034,11.793h-32.103
			c0-4.875-3.952-8.828-8.828-8.828s-8.828,3.952-8.828,8.828v26.483c0,4.875,3.952,8.828,8.828,8.828s8.828-3.952,8.828-8.828V256
			h35.681c9.418-0.113,17.15,7.419,17.284,16.836v1.638c-0.135,9.418-7.867,16.949-17.284,16.836h-62.164
			c-4.875,0-8.828,3.952-8.828,8.828s3.952,8.828,8.828,8.828h8.828v8.828c0,4.875,3.952,8.828,8.828,8.828s8.828-3.952,8.828-8.828
			v-8.828H256v8.828c0,4.875,3.952,8.828,8.828,8.828s8.828-3.952,8.828-8.828v-8.828h0.371
			c19.164,0.101,34.793-15.328,34.94-34.491v-1.638C308.932,261.46,303.265,250.84,293.835,244.477z"/>
		<path style="fill:#F9EAB0;" d="M249.732,156.337c1.693,1.611,3.931,2.525,6.268,2.56c0.561-0.016,1.12-0.075,1.672-0.177
			c0.585-0.085,1.153-0.264,1.681-0.53c0.542-0.177,1.05-0.447,1.5-0.797c0.526-0.349,0.974-0.703,1.414-1.056
			c0.779-0.859,1.406-1.844,1.854-2.914c0.452-1.061,0.693-2.2,0.707-3.354c-0.018-2.34-0.935-4.584-2.56-6.268
			c-0.44-0.353-0.888-0.707-1.414-1.06c-0.45-0.351-0.958-0.62-1.5-0.797c-0.527-0.267-1.095-0.445-1.681-0.526
			c-2.876-0.536-5.834,0.352-7.94,2.383c-0.38,0.419-0.735,0.861-1.06,1.323c-0.335,0.49-0.602,1.024-0.793,1.586
			c-0.255,0.501-0.435,1.037-0.535,1.591c-0.1,0.584-0.158,1.175-0.173,1.768c0.014,1.153,0.254,2.293,0.707,3.353
			C248.327,154.492,248.953,155.478,249.732,156.337z"/>
		<path style="fill:#F9EAB0;" d="M262.268,355.663c-0.44-0.353-0.888-0.707-1.414-1.06c-0.45-0.351-0.958-0.62-1.5-0.797
			c-0.527-0.267-1.095-0.445-1.681-0.526c-2.878-0.58-5.857,0.314-7.94,2.383c-0.779,0.857-1.406,1.841-1.854,2.909
			c-0.453,1.062-0.693,2.203-0.707,3.358c0.015,0.591,0.072,1.18,0.172,1.763c0.1,0.553,0.28,1.089,0.535,1.591
			c0.191,0.564,0.457,1.099,0.793,1.591c0.328,0.461,0.682,0.903,1.06,1.324c1.693,1.611,3.931,2.525,6.268,2.56
			c0.561-0.016,1.12-0.075,1.672-0.177c0.585-0.085,1.153-0.264,1.681-0.53c0.542-0.177,1.05-0.447,1.5-0.797
			c0.526-0.349,0.974-0.703,1.414-1.056c1.625-1.684,2.542-3.927,2.56-6.267c-0.014-1.155-0.254-2.296-0.707-3.358
			C263.673,357.505,263.047,356.521,262.268,355.663z"/>
		<path style="fill:#F9EAB0;" d="M219.802,165.25c2.323,0.024,4.556-0.9,6.181-2.56c0.407-0.419,0.789-0.861,1.147-1.323
			c0.267-0.53,0.535-0.97,0.793-1.5c0.181-0.53,0.353-1.147,0.535-1.677c0.1-0.584,0.158-1.175,0.172-1.767
			c-0.008-2.333-0.963-4.562-2.647-6.177c-0.377-0.45-0.822-0.838-1.319-1.151c-0.448-0.263-0.974-0.53-1.5-0.793
			c-0.535-0.177-1.155-0.353-1.681-0.53c-2.896-0.547-5.875,0.38-7.948,2.474c-2.528,2.518-3.281,6.315-1.906,9.607
			C213.004,163.145,216.234,165.279,219.802,165.25L219.802,165.25z"/>
		<path style="fill:#F9EAB0;" d="M298.457,349.306c-0.399-0.427-0.841-0.811-1.319-1.147c-0.535-0.267-0.974-0.53-1.5-0.797
			c-0.549-0.186-1.111-0.333-1.681-0.44c-1.131-0.263-2.308-0.263-3.44,0c-0.57,0.106-1.132,0.253-1.681,0.44
			c-0.526,0.267-1.06,0.53-1.5,0.797c-0.498,0.313-0.946,0.699-1.328,1.147c-0.849,0.785-1.512,1.749-1.94,2.823
			c-0.444,1.095-0.684,2.262-0.707,3.444c0.011,2.333,0.966,4.563,2.647,6.181c0.382,0.447,0.829,0.834,1.328,1.147
			c0.44,0.263,0.974,0.53,1.5,0.793c0.547,0.218,1.108,0.395,1.681,0.53c0.552,0.103,1.111,0.163,1.672,0.177
			c0.593-0.014,1.184-0.073,1.767-0.177c0.572-0.137,1.134-0.314,1.681-0.53c0.526-0.263,0.966-0.53,1.5-0.793
			c0.478-0.335,0.92-0.719,1.319-1.147c1.66-1.625,2.585-3.858,2.56-6.181c0.01-1.176-0.197-2.344-0.612-3.444
			C299.939,351.074,299.279,350.116,298.457,349.306z"/>
		<path style="fill:#F9EAB0;" d="M196.061,171.431c-0.267-0.53-0.535-0.97-0.793-1.5c-0.357-0.464-0.74-0.907-1.147-1.328
			c-0.834-0.792-1.788-1.447-2.828-1.94c-2.181-0.884-4.621-0.884-6.802,0c-1.037,0.493-1.988,1.148-2.819,1.94
			c-0.407,0.421-0.789,0.864-1.147,1.328c-0.267,0.53-0.535,0.97-0.802,1.5c-0.172,0.53-0.353,1.147-0.526,1.677
			c-0.1,0.584-0.158,1.175-0.172,1.767c0.015,0.562,0.072,1.123,0.172,1.677c0.172,0.616,0.353,1.147,0.526,1.677
			c0.267,0.53,0.535,1.06,0.802,1.5c0.334,0.508,0.718,0.982,1.147,1.414c0.812,0.793,1.769,1.423,2.819,1.854
			c1.091,0.462,2.263,0.702,3.448,0.707c2.309-0.047,4.515-0.961,6.181-2.56c0.428-0.432,0.812-0.906,1.147-1.414
			c0.259-0.44,0.526-0.97,0.793-1.5c0.172-0.53,0.353-1.06,0.526-1.677c0.107-0.553,0.167-1.114,0.181-1.677
			c-0.013-0.593-0.074-1.184-0.181-1.767C196.414,172.578,196.233,171.961,196.061,171.431z"/>
		<path style="fill:#F9EAB0;" d="M329,329.797c-0.48-0.301-0.981-0.566-1.5-0.793c-0.544-0.218-1.103-0.395-1.672-0.53
			c-2.595-0.513-5.284,0.159-7.333,1.832c-2.049,1.673-3.245,4.174-3.261,6.819c0.023,1.18,0.262,2.346,0.707,3.44
			c0.427,1.076,1.089,2.042,1.94,2.828c1.627,1.658,3.858,2.583,6.181,2.56c0.595,0.029,1.19-0.031,1.767-0.177
			c0.567-0.108,1.126-0.256,1.672-0.444c0.52-0.257,1.021-0.551,1.5-0.879c0.483-0.299,0.929-0.655,1.328-1.06
			c0.823-0.808,1.482-1.769,1.94-2.828c0.418-1.098,0.629-2.265,0.621-3.44c0.005-2.345-0.915-4.597-2.56-6.268
			C329.888,330.504,329.44,330.151,329,329.797z"/>
		<path style="fill:#F9EAB0;" d="M158.009,196.767c-1.645,1.671-2.565,3.923-2.56,6.268c-0.015,1.148,0.196,2.287,0.621,3.353
			c0.479,1.073,1.134,2.058,1.94,2.914c1.685,1.624,3.928,2.54,6.268,2.56c3.567-0.014,6.775-2.174,8.129-5.474
			c0.45-1.061,0.687-2.201,0.698-3.353c-0.023-2.356-0.974-4.608-2.647-6.268C166.951,193.5,161.515,193.5,158.009,196.767z"/>
		<path style="fill:#F9EAB0;" d="M353.983,302.698c-2.083-2.07-5.061-2.964-7.94-2.383c-0.586,0.08-1.154,0.258-1.681,0.526
			c-0.542,0.177-1.05,0.447-1.5,0.797c-0.495,0.282-0.944,0.639-1.328,1.06c-1.664,1.661-2.599,3.916-2.599,6.267
			c0,2.351,0.935,4.606,2.599,6.267c0.384,0.42,0.832,0.776,1.328,1.056c0.45,0.351,0.958,0.62,1.5,0.797
			c0.528,0.268,1.095,0.447,1.681,0.53c0.552,0.101,1.111,0.16,1.672,0.177c2.34-0.017,4.585-0.933,6.268-2.56
			c0.779-0.859,1.406-1.844,1.854-2.914c0.943-2.138,0.943-4.573,0-6.711C355.389,304.539,354.762,303.555,353.983,302.698z"/>
		<path style="fill:#F9EAB0;" d="M151.655,246.465c2.36-0.006,4.619-0.962,6.268-2.651c1.623-1.649,2.541-3.864,2.56-6.177
			c0.033-1.187-0.209-2.366-0.707-3.444c-0.427-1.053-1.057-2.013-1.854-2.823c-3.506-3.267-8.942-3.267-12.448,0
			c-0.85,0.784-1.513,1.749-1.94,2.823c-0.453,1.092-0.693,2.261-0.707,3.444C142.946,242.463,146.829,246.347,151.655,246.465
			L151.655,246.465z"/>
		<path style="fill:#F9EAB0;" d="M368.465,271.004c-0.179-0.542-0.451-1.05-0.802-1.5c-0.311-0.498-0.698-0.944-1.147-1.323
			c-2.087-2.067-5.048-2.99-7.94-2.474c-0.535,0.177-1.147,0.353-1.681,0.53c-0.526,0.267-0.974,0.53-1.5,0.797
			c-0.463,0.358-0.906,0.741-1.328,1.147c-1.656,1.626-2.58,3.856-2.56,6.177c-0.03,0.595,0.031,1.191,0.181,1.767
			c0.106,0.569,0.253,1.129,0.44,1.677c0.243,0.529,0.541,1.032,0.888,1.5c0.27,0.501,0.626,0.95,1.052,1.328
			c0.423,0.404,0.866,0.787,1.328,1.147c0.526,0.263,0.974,0.53,1.5,0.793c0.549,0.188,1.111,0.336,1.681,0.444
			c0.575,0.143,1.167,0.201,1.759,0.172c2.323,0.026,4.555-0.897,6.181-2.556c0.428-0.401,0.813-0.846,1.147-1.328
			c0.333-0.462,0.603-0.966,0.802-1.5c0.253-0.532,0.43-1.096,0.526-1.677c0.1-0.584,0.158-1.175,0.172-1.767
			c-0.015-0.562-0.073-1.123-0.172-1.677C368.896,272.1,368.719,271.536,368.465,271.004z"/>
		<path style="fill:#F9EAB0;" d="M157.922,280.629c0.796-0.813,1.426-1.773,1.854-2.828c0.498-1.078,0.74-2.257,0.707-3.444
			c-0.02-2.313-0.938-4.528-2.56-6.177c-3.489-3.31-8.959-3.31-12.448,0c-1.68,1.617-2.634,3.845-2.647,6.177
			c0.014,1.183,0.254,2.352,0.707,3.444c0.428,1.075,1.09,2.041,1.94,2.828c1.628,1.656,3.859,2.579,6.181,2.556
			c0.594,0.028,1.19-0.03,1.767-0.172c0.539-0.108,1.069-0.256,1.586-0.444c0.535-0.263,1.06-0.53,1.595-0.793
			C157.065,281.418,157.505,281.035,157.922,280.629z"/>
		<path style="fill:#F9EAB0;" d="M354.069,231.371c-1.659,1.661-2.582,3.92-2.56,6.268c-0.03,0.565,0.032,1.131,0.181,1.677
			c0.095,0.571,0.242,1.132,0.44,1.677c0.243,0.529,0.541,1.032,0.888,1.5c0.248,0.514,0.607,0.966,1.052,1.323
			c0.422,0.407,0.865,0.791,1.328,1.151c0.526,0.263,0.974,0.53,1.5,0.793c0.535,0.177,1.147,0.353,1.681,0.53
			c0.581,0.101,1.169,0.16,1.759,0.177c2.335-0.007,4.566-0.964,6.181-2.651c0.448-0.379,0.835-0.826,1.147-1.323
			c0.351-0.45,0.622-0.958,0.802-1.5c0.265-0.527,0.443-1.093,0.526-1.677c0.1-0.554,0.158-1.114,0.172-1.677
			c-0.015-0.592-0.072-1.183-0.172-1.767c-0.096-0.581-0.273-1.145-0.526-1.677c-0.199-0.534-0.469-1.038-0.802-1.5
			c-0.335-0.48-0.719-0.923-1.147-1.323c-2.083-2.07-5.061-2.964-7.94-2.383c-0.571,0.104-1.133,0.251-1.681,0.44
			c-0.526,0.267-0.974,0.53-1.5,0.793C354.934,230.58,354.491,230.964,354.069,231.371z"/>
		<path style="fill:#F9EAB0;" d="M158.009,302.698c-3.414,3.481-3.414,9.054,0,12.534c1.685,1.624,3.928,2.54,6.268,2.56
			c3.583,0.01,6.814-2.152,8.172-5.467c1.358-3.315,0.57-7.123-1.99-9.628C166.951,299.43,161.515,299.43,158.009,302.698z"/>
		<path style="fill:#F9EAB0;" d="M342.862,210.358c0.45,0.351,0.958,0.62,1.5,0.797c0.528,0.268,1.095,0.447,1.681,0.53
			c0.552,0.101,1.111,0.16,1.672,0.177c0.593-0.016,1.183-0.075,1.767-0.177c0.552-0.098,1.086-0.277,1.586-0.53
			c0.565-0.194,1.101-0.462,1.595-0.797c0.44-0.349,0.879-0.703,1.319-1.056c0.378-0.421,0.732-0.862,1.06-1.323
			c0.336-0.492,0.603-1.027,0.793-1.591c0.255-0.501,0.435-1.037,0.535-1.591c0.23-1.165,0.23-2.365,0-3.53
			c-0.1-0.553-0.28-1.089-0.535-1.591c-0.192-0.562-0.458-1.096-0.793-1.586c-0.326-0.463-0.68-0.904-1.06-1.323
			c-2.106-2.031-5.063-2.919-7.94-2.383c-0.586,0.08-1.154,0.258-1.681,0.526c-0.542,0.177-1.05,0.447-1.5,0.797
			c-0.475,0.31-0.92,0.666-1.328,1.06c-0.408,0.418-0.79,0.86-1.147,1.323c-0.331,0.492-0.598,1.026-0.793,1.586
			c-0.218,0.515-0.394,1.047-0.526,1.591c-0.103,0.584-0.163,1.174-0.181,1.767c0.028,2.355,0.978,4.605,2.647,6.268
			C341.941,209.697,342.386,210.05,342.862,210.358z"/>
		<path style="fill:#F9EAB0;" d="M196.061,333.772c-0.267-0.53-0.535-1.06-0.793-1.504c-0.311-0.498-0.698-0.944-1.147-1.323
			c-0.786-0.85-1.752-1.513-2.828-1.94c-2.181-0.884-4.621-0.884-6.802,0c-1.073,0.427-2.036,1.09-2.819,1.94
			c-0.448,0.379-0.835,0.826-1.147,1.323c-0.267,0.444-0.535,0.974-0.802,1.504c-0.172,0.526-0.353,1.056-0.526,1.677
			c-0.1,0.554-0.158,1.114-0.172,1.677c0.006,2.359,0.96,4.618,2.647,6.268c0.807,0.821,1.764,1.479,2.819,1.94
			c1.096,0.436,2.269,0.647,3.448,0.621c1.148,0.018,2.288-0.193,3.353-0.621c1.058-0.46,2.018-1.119,2.828-1.94
			c1.683-1.652,2.636-3.909,2.646-6.268c-0.013-0.563-0.074-1.124-0.181-1.677C196.414,334.828,196.233,334.297,196.061,333.772z"/>
		<path style="fill:#F9EAB0;" d="M329,167.548c-0.478-0.33-0.98-0.625-1.5-0.884c-0.546-0.188-1.105-0.336-1.672-0.444
			c-3.201-0.688-6.518,0.467-8.599,2.995c-2.081,2.527-2.578,6.004-1.289,9.014c0.427,1.075,1.09,2.04,1.94,2.823
			c1.617,1.683,3.847,2.64,6.181,2.651c0.593-0.016,1.183-0.075,1.767-0.177c0.58-0.097,1.143-0.276,1.672-0.53
			c0.535-0.194,1.04-0.462,1.5-0.797c0.465-0.356,0.908-0.739,1.328-1.147c0.823-0.807,1.482-1.766,1.94-2.823
			c1.291-3.312,0.533-7.072-1.94-9.625C329.93,168.199,329.484,167.844,329,167.548z"/>
		<path style="fill:#F9EAB0;" d="M225.983,349.306c-3.506-3.267-8.942-3.267-12.448,0c-0.822,0.808-1.481,1.766-1.94,2.823
			c-0.425,1.098-0.636,2.267-0.621,3.444c-0.016,1.148,0.195,2.287,0.621,3.353c0.459,1.058,1.118,2.018,1.94,2.828
			c1.629,1.691,3.876,2.647,6.224,2.647c2.348,0,4.595-0.955,6.224-2.647c0.822-0.809,1.481-1.769,1.94-2.828
			c0.457-1.059,0.697-2.2,0.707-3.353c-0.019-1.182-0.259-2.35-0.707-3.444C227.463,351.072,226.805,350.114,225.983,349.306z"/>
		<path style="fill:#F9EAB0;" d="M287.336,163.841c0.44,0.263,0.974,0.526,1.5,0.793c0.548,0.189,1.11,0.336,1.681,0.44
			c0.545,0.146,1.109,0.205,1.672,0.177c0.595,0.029,1.19-0.031,1.767-0.177c0.57-0.105,1.132-0.252,1.681-0.44
			c0.526-0.267,0.966-0.53,1.5-0.793c0.479-0.335,0.922-0.721,1.319-1.151c3.414-3.446,3.414-8.998,0-12.444
			c-0.397-0.43-0.839-0.815-1.319-1.151c-0.483-0.296-0.984-0.561-1.5-0.793c-0.548-0.215-1.109-0.392-1.681-0.53
			c-1.14-0.177-2.3-0.177-3.44,0c-0.572,0.137-1.134,0.314-1.681,0.53c-0.526,0.263-1.06,0.53-1.5,0.793
			c-0.499,0.313-0.947,0.701-1.328,1.151c-1.691,1.628-2.647,3.874-2.647,6.222c0,2.347,0.956,4.594,2.647,6.222
			C286.389,163.14,286.837,163.528,287.336,163.841z"/>
	</g>
</g>
<g>
</g>
<g>
</g>
<g>
</g>
<g>
</g>
<g>
</g>
<g>
</g>
<g>
</g>
<g>
</g>
<g>
</g>
<g>
</g>
<g>
</g>
<g>
</g>
<g>
</g>
<g>
</g>
<g>
</g>
</svg>
