<svg height="480pt" viewBox="0 0 480 480" width="480pt" xmlns="http://www.w3.org/2000/svg"><path d="m392 48h-304v40h-40v304h40v40h304v-40h40v-304h-40zm-152 312c-66.273438 0-120-53.726562-120-120s53.726562-120 120-120 120 53.726562 120 120-53.726562 120-120 120zm0 0" fill="#ffeb99"/><path d="m240 120c-66.273438 0-120 53.726562-120 120s53.726562 120 120 120 120-53.726562 120-120-53.726562-120-120-120zm0 216c-53.019531 0-96-42.980469-96-96s42.980469-96 96-96 96 42.980469 96 96-42.980469 96-96 96zm0 0" fill="#ff9478"/><path d="m336 240c0 53.019531-42.980469 96-96 96s-96-42.980469-96-96 42.980469-96 96-96 96 42.980469 96 96zm0 0" fill="#ffb655"/><path d="m8 88h80v-80h-80zm0 0" fill="#3d9ae2"/><path d="m8 392v80h80v-80zm0 0" fill="#3d9ae2"/><path d="m392 8v80h80v-80zm0 0" fill="#3d9ae2"/><path d="m392 392v80h80v-80zm0 0" fill="#3d9ae2"/><g fill="#3e3d42"><path d="m240 112c-70.691406 0-128 57.308594-128 128s57.308594 128 128 128 128-57.308594 128-128c-.082031-70.65625-57.34375-127.917969-128-128zm0 240c-61.855469 0-112-50.144531-112-112s50.144531-112 112-112 112 50.144531 112 112c-.066406 61.828125-50.171875 111.933594-112 112zm0 0"/><path d="m256 201.472656v-9.472656h-16v8h-8v-8h-16v8c-4.417969 0-8 3.582031-8 8v64c0 4.417969 3.582031 8 8 8v8h16v-8h8v8h16v-9.472656c7.566406-2.617188 13.308594-8.867188 15.273438-16.628906 1.96875-7.761719-.105469-15.992188-5.511719-21.898438 5.40625-5.90625 7.480469-14.136719 5.511719-21.898438-1.964844-7.761718-7.707032-14.011718-15.273438-16.628906zm-32 14.527344h24c4.417969 0 8 3.582031 8 8s-3.582031 8-8 8h-24zm24 48h-24v-16h24c4.417969 0 8 3.582031 8 8s-3.582031 8-8 8zm0 0"/><path d="m240 136c-57.4375 0-104 46.5625-104 104s46.5625 104 104 104 104-46.5625 104-104c-.066406-57.410156-46.589844-103.933594-104-104zm0 192c-48.601562 0-88-39.398438-88-88s39.398438-88 88-88 88 39.398438 88 88c-.058594 48.578125-39.421875 87.941406-88 88zm0 0"/><path d="m288 232h16v16h-16zm0 0"/><path d="m176 232h16v16h-16zm0 0"/><path d="m472 96c4.417969 0 8-3.582031 8-8v-80c0-4.417969-3.582031-8-8-8h-80c-4.417969 0-8 3.582031-8 8v32h-288v-32c0-4.417969-3.582031-8-8-8h-80c-4.417969 0-8 3.582031-8 8v80c0 4.417969 3.582031 8 8 8h32v288h-32c-4.417969 0-8 3.582031-8 8v80c0 4.417969 3.582031 8 8 8h80c4.417969 0 8-3.582031 8-8v-32h288v32c0 4.417969 3.582031 8 8 8h80c4.417969 0 8-3.582031 8-8v-80c0-4.417969-3.582031-8-8-8h-32v-288zm-72-80h64v64h-24v-32c0-4.417969-3.582031-8-8-8h-32zm0 40h24v24h-24zm-384 24v-64h64v24h-32c-4.417969 0-8 3.582031-8 8v32zm64-24v24h-24v-24zm0 408h-64v-64h24v32c0 4.417969 3.582031 8 8 8h32zm0-40h-24v-24h24zm384-24v64h-64v-24h32c4.417969 0 8-3.582031 8-8v-32zm-64 24v-24h24v24zm24-40h-32c-4.417969 0-8 3.582031-8 8v32h-288v-32c0-4.417969-3.582031-8-8-8h-32v-288h32c4.417969 0 8-3.582031 8-8v-32h288v32c0 4.417969 3.582031 8 8 8h32zm0 0"/></g></svg>