<svg height="464pt" viewBox="0 0 464 464" width="464pt" xmlns="http://www.w3.org/2000/svg"><path d="m120 464c66.273438 0 120-53.726562 120-120s-53.726562-120-120-120-120 53.726562-120 120 53.726562 120 120 120zm0-216c53.019531 0 96 42.980469 96 96s-42.980469 96-96 96-96-42.980469-96-96 42.980469-96 96-96zm0 0" fill="#ff9478"/><path d="m344 0c-66.273438 0-120 53.726562-120 120s53.726562 120 120 120 120-53.726562 120-120-53.726562-120-120-120zm0 216c-53.019531 0-96-42.980469-96-96s42.980469-96 96-96 96 42.980469 96 96-42.980469 96-96 96zm0 0" fill="#ff9478"/><path d="m440 120c0 53.019531-42.980469 96-96 96s-96-42.980469-96-96 42.980469-96 96-96 96 42.980469 96 96zm0 0" fill="#ffb655"/><path d="m216 344c0 53.019531-42.980469 96-96 96s-96-42.980469-96-96 42.980469-96 96-96 96 42.980469 96 96zm0 0" fill="#ffde55"/><path d="m120 448c-57.4375 0-104-46.5625-104-104s46.5625-104 104-104 104 46.5625 104 104c-.066406 57.410156-46.589844 103.933594-104 104zm0-192c-48.601562 0-88 39.398438-88 88s39.398438 88 88 88 88-39.398438 88-88c-.058594-48.578125-39.421875-87.941406-88-88zm0 0" fill="#ffa733"/><path d="m344 224c-57.4375 0-104-46.5625-104-104s46.5625-104 104-104 104 46.5625 104 104c-.066406 57.410156-46.589844 103.933594-104 104zm0-192c-48.601562 0-88 39.398438-88 88s39.398438 88 88 88 88-39.398438 88-88c-.058594-48.578125-39.421875-87.941406-88-88zm0 0" fill="#ff7956"/><path d="m59.824219 167.121094-8.320313-31.578125-15.472656 4.082031 12.234375 46.398438c.917969 3.519531 4.097656 5.976562 7.734375 5.976562.6875-.003906 1.375-.089844 2.039062-.265625l46.402344-12.230469-4.082031-15.472656-24.664063 6.503906c23.378907-58.980468 77.859376-99.871094 141.023438-105.847656l-1.4375-15.933594c-70.132812 6.632813-130.40625 52.527344-155.457031 118.367188zm0 0" fill="#ffa733"/><path d="m428.664062 319.328125-21.511718-42.914063c-1.980469-3.949218-6.785156-5.546874-10.738282-3.566406l-42.910156 21.503906 7.199219 14.3125 26.871094-13.464843c-23.769531 58.089843-77.808594 98.191406-140.292969 104.113281l1.4375 15.933594c68.140625-6.46875 127.132812-50.042969 153.34375-113.269532l12.289062 24.519532zm0 0" fill="#ffa733"/><path d="m360 81.472656v-9.472656h-16v8h-8v-8h-16v8c-4.417969 0-8 3.582031-8 8v64c0 4.417969 3.582031 8 8 8v8h16v-8h8v8h16v-9.472656c7.566406-2.617188 13.308594-8.867188 15.273438-16.628906 1.96875-7.761719-.105469-15.992188-5.511719-21.898438 5.40625-5.90625 7.480469-14.136719 5.511719-21.898438-1.964844-7.761718-7.707032-14.011718-15.273438-16.628906zm-32 14.527344h24c4.417969 0 8 3.582031 8 8s-3.582031 8-8 8h-24zm24 48h-24v-16h24c4.417969 0 8 3.582031 8 8s-3.582031 8-8 8zm0 0" fill="#ff6243"/><path d="m392 112h16v16h-16zm0 0" fill="#ff6243"/><path d="m280 112h16v16h-16zm0 0" fill="#ff6243"/><g fill="#ff7956"><path d="m112 320h16c4.417969 0 8 3.582031 8 8h16c0-13.253906-10.746094-24-24-24v-8h-16v8c-13.253906 0-24 10.746094-24 24s10.746094 24 24 24h16c4.417969 0 8 3.582031 8 8s-3.582031 8-8 8h-16c-4.417969 0-8-3.582031-8-8h-16c0 13.253906 10.746094 24 24 24v8h16v-8c13.253906 0 24-10.746094 24-24s-10.746094-24-24-24h-16c-4.417969 0-8-3.582031-8-8s3.582031-8 8-8zm0 0"/><path d="m168 336h16v16h-16zm0 0"/><path d="m56 336h16v16h-16zm0 0"/></g></svg>