<?xml version="1.0" encoding="iso-8859-1"?>
<!-- Generator: Adobe Illustrator 19.0.0, SVG Export Plug-In . SVG Version: 6.00 Build 0)  -->
<svg version="1.1" id="Capa_1" xmlns="http://www.w3.org/2000/svg" xmlns:xlink="http://www.w3.org/1999/xlink" x="0px" y="0px"
	 viewBox="0 0 512 512" style="enable-background:new 0 0 512 512;" xml:space="preserve">
<rect x="204.8" y="412.588" style="fill:#ABBACD;" width="102.4" height="62.295"/>
<rect x="204.8" y="412.588" style="fill:#91A4B6;" width="102.4" height="28.209"/>
<path style="fill:#BAC7D9;" d="M494.933,76.801c9.426,0,17.067,7.641,17.067,17.067v307.199c0,9.426-7.641,17.067-17.067,17.067
	H17.067C7.641,418.133,0,410.492,0,401.067V93.868c0-9.426,7.641-17.067,17.067-17.067C17.067,76.801,494.933,76.801,494.933,76.801
	z"/>
<path style="fill:#A5B5CC;" d="M494.933,76.801H472.27c9.426,0,17.067,7.641,17.067,17.067v307.199
	c0,9.426-7.641,17.067-17.067,17.067h22.663c9.426,0,17.067-7.641,17.067-17.067V93.868C512,84.442,504.359,76.801,494.933,76.801z"
	/>
<circle style="fill:#D7DCF2;" cx="256" cy="384" r="12.801"/>
<path style="fill:#474855;" d="M512,349.866V93.868c0-9.426-7.641-17.067-17.067-17.067H17.067C7.641,76.801,0,84.442,0,93.868
	v255.998H512z"/>
<path style="fill:#3C3C47;" d="M494.933,76.801h-22.664c9.426,0,17.067,7.641,17.067,17.067v255.998H512V93.868
	C512,84.442,504.359,76.801,494.933,76.801z"/>
<path style="fill:#FFFFFF;" d="M25.6,108.582v209.503c0,3.414,2.767,6.181,6.181,6.181H480.22c3.414,0,6.181-2.767,6.181-6.181
	V108.582c0-3.414-2.767-6.181-6.181-6.181H31.781C28.367,102.401,25.6,105.168,25.6,108.582z"/>
<path style="fill:#92D782;" d="M486.398,145.066H25.601v-36.484c0-3.414,2.767-6.181,6.181-6.181H480.22
	c3.414,0,6.181,2.767,6.181,6.181L486.398,145.066z"/>
<path style="fill:#FFFFFF;" d="M68.266,131.46H51.201c-4.267,0-7.726-3.459-7.726-7.726c0-4.267,3.459-7.726,7.726-7.726h17.065
	c4.267,0,7.726,3.459,7.726,7.726C75.992,128.001,72.533,131.46,68.266,131.46z"/>
<path style="fill:#BAC7D9;" d="M369.286,503.468h-226.57c-3.414,0-6.181-2.767-6.181-6.181v-21.771c0-3.414,2.767-6.181,6.181-6.181
	h226.571c3.414,0,6.181,2.767,6.181,6.181v21.771C375.467,500.7,372.7,503.468,369.286,503.468z"/>
<path style="fill:#A5B5CC;" d="M369.286,469.334h-22.664c3.414,0,6.181,2.767,6.181,6.181v21.771c0,3.414-2.767,6.181-6.181,6.181
	h22.664c3.414,0,6.181-2.767,6.181-6.181v-21.771C375.467,472.101,372.7,469.334,369.286,469.334z"/>
<path style="fill:#8DDDF2;" d="M171.154,76.8h-34.621c-9.426,0-17.067,7.641-17.067,17.067v170.667
	c0,9.426,7.641,17.067,17.067,17.067h238.933c9.426,0,17.067-7.641,17.067-17.067v-34.133v-68.267V93.867
	c0-9.426-7.641-17.067-17.067-17.067h-34.134C341.332,76.8,171.154,76.8,171.154,76.8z"/>
<path style="fill:#7BCDE3;" d="M375.467,76.8h-22.664c9.426,0,17.067,7.641,17.067,17.067v68.267v68.267v34.133
	c0,9.426-7.641,17.067-17.067,17.067h22.665c9.426,0,17.067-7.641,17.067-17.067v-34.133v-68.267V93.867
	C392.534,84.441,384.893,76.8,375.467,76.8z"/>
<path style="fill:#ABECFD;" d="M375.467,76.8c9.426,0,17.067,7.641,17.067,17.067v34.134h-256c-9.426,0-17.067-7.641-17.067-17.067
	V93.867c0-9.426,7.641-17.067,17.067-17.067C136.534,76.8,375.467,76.8,375.467,76.8z"/>
<path style="fill:#8DDDF2;" d="M369.87,93.867v34.134h22.665V93.867c0-9.426-7.641-17.067-17.067-17.067h-22.664
	C362.228,76.8,369.87,84.441,369.87,93.867z"/>
<path style="fill:#ABECFD;" d="M307.2,162.134c-9.426,0-17.067,7.641-17.067,17.067v34.134c0,9.426,7.641,17.067,17.067,17.067
	h85.333c9.426,0,17.067-7.641,17.067-17.067v-34.134c0-9.426-7.641-17.067-17.067-17.067H307.2z"/>
<circle style="fill:#474855;" cx="324.27" cy="196.27" r="12.801"/>
<path style="fill:#8DDDF2;" d="M392.533,162.134h-22.665c9.426,0,17.067,7.641,17.067,17.067l-0.001,34.132
	c0,9.426-7.641,17.067-17.067,17.067h22.664c9.426,0,17.067-7.641,17.067-17.067v-34.132
	C409.6,169.776,401.959,162.134,392.533,162.134z"/>
<path style="fill:#FFDF8C;" d="M334.211,128.001c4.57-10.455,7.122-21.995,7.122-34.135c0-47.128-38.205-85.333-85.333-85.333
	s-85.333,38.205-85.333,85.333c0,12.141,2.552,23.68,7.122,34.135C177.789,128.001,334.211,128.001,334.211,128.001z"/>
<g>
	<path style="fill:#FFC880;" d="M256,8.532c-3.845,0-7.622,0.279-11.332,0.772c41.768,5.546,74.001,41.277,74.001,84.561
		c0,12.141-2.552,23.68-7.122,34.135h22.664c4.57-10.455,7.122-21.995,7.122-34.135C341.333,46.737,303.128,8.532,256,8.532z"/>
	<path style="fill:#FFC880;" d="M305.007,128.001c6.754-9.678,10.726-21.439,10.726-34.135c0-32.989-26.743-59.733-59.733-59.733
		s-59.733,26.743-59.733,59.733c0,12.696,3.972,24.458,10.726,34.135C206.993,128.001,305.007,128.001,305.007,128.001z"/>
</g>
<g>
	<path style="fill:#FFAA6E;" d="M256,34.132c-3.877,0-7.661,0.382-11.332,1.088c27.569,5.296,48.401,29.532,48.401,58.646
		c0,12.696-3.972,24.458-10.726,34.135h22.664c6.754-9.678,10.726-21.439,10.726-34.135C315.733,60.875,288.99,34.132,256,34.132z"
		/>
	<path style="fill:#FFAA6E;" d="M256,120.276c-5.151,0-9.341-4.19-9.341-9.341c0-4.268-3.458-7.726-7.726-7.726
		c-4.268,0-7.726,3.458-7.726,7.726c0,6.609,2.604,12.618,6.834,17.066h35.918c4.23-4.449,6.834-10.457,6.834-17.066
		c0-6.623-2.579-12.849-7.262-17.532c-4.682-4.682-10.908-7.261-17.527-7.261c-0.001,0-0.003,0-0.005,0
		c-5.151,0-9.341-4.19-9.341-9.341c0-5.151,4.19-9.342,9.341-9.342c5.151,0,9.341,4.191,9.341,9.342
		c0,4.268,3.458,7.726,7.726,7.726s7.726-3.458,7.726-7.726c0-10.976-7.171-20.303-17.072-23.557
		c-0.048-4.226-3.484-7.637-7.722-7.637s-7.674,3.411-7.722,7.637c-9.901,3.254-17.072,12.581-17.072,23.557
		c0,6.623,2.579,12.849,7.262,17.532c4.682,4.682,10.908,7.261,17.527,7.261c0.001,0,0.003,0,0.005,0
		c5.151,0,9.341,4.19,9.341,9.341S261.151,120.276,256,120.276z"/>
</g>
<g>
</g>
<g>
</g>
<g>
</g>
<g>
</g>
<g>
</g>
<g>
</g>
<g>
</g>
<g>
</g>
<g>
</g>
<g>
</g>
<g>
</g>
<g>
</g>
<g>
</g>
<g>
</g>
<g>
</g>
</svg>
